<svg xmlns="http://www.w3.org/2000/svg" width="16.357" height="16.357" viewBox="0 0 16.357 16.357">
  <g id="Grupo_884" data-name="Grupo 884" transform="translate(7710.679 2611.178)">
    <path id="Icon_ionic-ios-arrow-dropdown-circle" data-name="Icon ionic-ios-arrow-dropdown-circle" d="M3.375,11.282a7.907,7.907,0,1,0,7.907-7.907A7.906,7.906,0,0,0,3.375,11.282Zm10.991-1.65a.737.737,0,0,1,1.038,0,.725.725,0,0,1,.213.517.737.737,0,0,1-.217.521l-3.585,3.574a.733.733,0,0,1-1.011-.023L7.165,10.594A.734.734,0,0,1,8.2,9.557l3.083,3.114Z" transform="translate(-7713.382 -2591.331) rotate(-92)" fill="#5c7b61"/>
  </g>
</svg>
